<svg width="161" height="23" viewBox="0 0 161 23" fill="none" xmlns="http://www.w3.org/2000/svg">
<g clip-path="url(#clip0_1_682)">
<path d="M42.032 6.832L38.912 18H36.272L34.176 10.048L31.984 18L29.36 18.016L26.352 6.832H28.752L30.72 15.504L32.992 6.832H35.488L37.632 15.456L39.616 6.832H42.032ZM42.9186 13.536C42.9186 12.64 43.0946 11.8453 43.4466 11.152C43.8093 10.4587 44.2946 9.92533 44.9026 9.552C45.5213 9.17867 46.2093 8.992 46.9666 8.992C47.628 8.992 48.204 9.12533 48.6946 9.392C49.196 9.65867 49.596 9.99467 49.8946 10.4V9.136H52.1506V18H49.8946V16.704C49.6066 17.12 49.2066 17.4667 48.6946 17.744C48.1933 18.0107 47.612 18.144 46.9506 18.144C46.204 18.144 45.5213 17.952 44.9026 17.568C44.2946 17.184 43.8093 16.6453 43.4466 15.952C43.0946 15.248 42.9186 14.4427 42.9186 13.536ZM49.8946 13.568C49.8946 13.024 49.788 12.56 49.5746 12.176C49.3613 11.7813 49.0733 11.4827 48.7106 11.28C48.348 11.0667 47.9586 10.96 47.5426 10.96C47.1266 10.96 46.7426 11.0613 46.3906 11.264C46.0386 11.4667 45.7506 11.7653 45.5266 12.16C45.3133 12.544 45.2066 13.0027 45.2066 13.536C45.2066 14.0693 45.3133 14.5387 45.5266 14.944C45.7506 15.3387 46.0386 15.6427 46.3906 15.856C46.7533 16.0693 47.1373 16.176 47.5426 16.176C47.9586 16.176 48.348 16.0747 48.7106 15.872C49.0733 15.6587 49.3613 15.36 49.5746 14.976C49.788 14.5813 49.8946 14.112 49.8946 13.568ZM56.9464 10.976V15.264C56.9464 15.5627 57.0157 15.7813 57.1544 15.92C57.3037 16.048 57.549 16.112 57.8904 16.112H58.9304V18H57.5224C55.6344 18 54.6904 17.0827 54.6904 15.248V10.976H53.6344V9.136H54.6904V6.944H56.9464V9.136H58.9304V10.976H56.9464ZM59.9655 13.568C59.9655 12.6507 60.1522 11.8507 60.5255 11.168C60.8988 10.4747 61.4162 9.94133 62.0775 9.568C62.7388 9.184 63.4962 8.992 64.3495 8.992C65.4482 8.992 66.3548 9.26933 67.0695 9.824C67.7948 10.368 68.2802 11.136 68.5255 12.128H66.1095C65.9815 11.744 65.7628 11.4453 65.4535 11.232C65.1548 11.008 64.7815 10.896 64.3335 10.896C63.6935 10.896 63.1868 11.1307 62.8135 11.6C62.4402 12.0587 62.2535 12.7147 62.2535 13.568C62.2535 14.4107 62.4402 15.0667 62.8135 15.536C63.1868 15.9947 63.6935 16.224 64.3335 16.224C65.2402 16.224 65.8322 15.8187 66.1095 15.008H68.5255C68.2802 15.968 67.7948 16.7307 67.0695 17.296C66.3442 17.8613 65.4375 18.144 64.3495 18.144C63.4962 18.144 62.7388 17.9573 62.0775 17.584C61.4162 17.2 60.8988 16.6667 60.5255 15.984C60.1522 15.2907 59.9655 14.4853 59.9655 13.568ZM75.1585 9.008C75.8305 9.008 76.4278 9.15733 76.9505 9.456C77.4732 9.744 77.8785 10.176 78.1665 10.752C78.4652 11.3173 78.6145 12 78.6145 12.8V18H76.3745V13.104C76.3745 12.4 76.1985 11.8613 75.8465 11.488C75.4945 11.104 75.0145 10.912 74.4065 10.912C73.7878 10.912 73.2972 11.104 72.9345 11.488C72.5825 11.8613 72.4065 12.4 72.4065 13.104V18H70.1665V6.16H72.4065V10.24C72.6945 9.856 73.0785 9.55733 73.5585 9.344C74.0385 9.12 74.5718 9.008 75.1585 9.008ZM87.1651 10.976V15.264C87.1651 15.5627 87.2345 15.7813 87.3731 15.92C87.5225 16.048 87.7678 16.112 88.1091 16.112H89.1491V18H87.7411C85.8531 18 84.9091 17.0827 84.9091 15.248V10.976H83.8531V9.136H84.9091V6.944H87.1651V9.136H89.1491V10.976H87.1651ZM95.7523 9.008C96.4243 9.008 97.0216 9.15733 97.5443 9.456C98.0669 9.744 98.4723 10.176 98.7603 10.752C99.0589 11.3173 99.2083 12 99.2083 12.8V18H96.9683V13.104C96.9683 12.4 96.7923 11.8613 96.4403 11.488C96.0883 11.104 95.6083 10.912 95.0003 10.912C94.3816 10.912 93.8909 11.104 93.5283 11.488C93.1763 11.8613 93.0003 12.4 93.0003 13.104V18H90.7603V6.16H93.0003V10.24C93.2883 9.856 93.6723 9.55733 94.1523 9.344C94.6323 9.12 95.1656 9.008 95.7523 9.008ZM109.578 13.376C109.578 13.696 109.557 13.984 109.514 14.24H103.034C103.088 14.88 103.312 15.3813 103.706 15.744C104.101 16.1067 104.586 16.288 105.162 16.288C105.994 16.288 106.586 15.9307 106.938 15.216H109.354C109.098 16.0693 108.608 16.7733 107.882 17.328C107.157 17.872 106.266 18.144 105.21 18.144C104.357 18.144 103.589 17.9573 102.906 17.584C102.234 17.2 101.706 16.6613 101.322 15.968C100.949 15.2747 100.762 14.4747 100.762 13.568C100.762 12.6507 100.949 11.8453 101.322 11.152C101.696 10.4587 102.218 9.92533 102.89 9.552C103.562 9.17867 104.336 8.992 105.21 8.992C106.053 8.992 106.805 9.17333 107.466 9.536C108.138 9.89867 108.656 10.416 109.018 11.088C109.392 11.7493 109.578 12.512 109.578 13.376ZM107.258 12.736C107.248 12.16 107.04 11.7013 106.634 11.36C106.229 11.008 105.733 10.832 105.146 10.832C104.592 10.832 104.122 11.0027 103.738 11.344C103.365 11.6747 103.136 12.1387 103.05 12.736H107.258ZM125.058 6.832L120.962 18H118.242L114.146 6.832H116.546L119.618 15.712L122.674 6.832H125.058ZM127.537 8.08C127.142 8.08 126.812 7.95733 126.545 7.712C126.289 7.456 126.161 7.14133 126.161 6.768C126.161 6.39467 126.289 6.08533 126.545 5.84C126.812 5.584 127.142 5.456 127.537 5.456C127.932 5.456 128.257 5.584 128.513 5.84C128.78 6.08533 128.913 6.39467 128.913 6.768C128.913 7.14133 128.78 7.456 128.513 7.712C128.257 7.95733 127.932 8.08 127.537 8.08ZM128.641 9.136V18H126.401V9.136H128.641ZM130.278 13.536C130.278 12.64 130.454 11.8453 130.806 11.152C131.169 10.4587 131.659 9.92533 132.278 9.552C132.897 9.17867 133.585 8.992 134.342 8.992C134.918 8.992 135.467 9.12 135.99 9.376C136.513 9.62133 136.929 9.952 137.238 10.368V6.16H139.51V18H137.238V16.688C136.961 17.1253 136.571 17.4773 136.07 17.744C135.569 18.0107 134.987 18.144 134.326 18.144C133.579 18.144 132.897 17.952 132.278 17.568C131.659 17.184 131.169 16.6453 130.806 15.952C130.454 15.248 130.278 14.4427 130.278 13.536ZM137.254 13.568C137.254 13.024 137.147 12.56 136.934 12.176C136.721 11.7813 136.433 11.4827 136.07 11.28C135.707 11.0667 135.318 10.96 134.902 10.96C134.486 10.96 134.102 11.0613 133.75 11.264C133.398 11.4667 133.11 11.7653 132.886 12.16C132.673 12.544 132.566 13.0027 132.566 13.536C132.566 14.0693 132.673 14.5387 132.886 14.944C133.11 15.3387 133.398 15.6427 133.75 15.856C134.113 16.0693 134.497 16.176 134.902 16.176C135.318 16.176 135.707 16.0747 136.07 15.872C136.433 15.6587 136.721 15.36 136.934 14.976C137.147 14.5813 137.254 14.112 137.254 13.568ZM149.938 13.376C149.938 13.696 149.916 13.984 149.874 14.24H143.394C143.447 14.88 143.671 15.3813 144.066 15.744C144.46 16.1067 144.946 16.288 145.522 16.288C146.354 16.288 146.946 15.9307 147.298 15.216H149.714C149.458 16.0693 148.967 16.7733 148.242 17.328C147.516 17.872 146.626 18.144 145.57 18.144C144.716 18.144 143.948 17.9573 143.266 17.584C142.594 17.2 142.066 16.6613 141.682 15.968C141.308 15.2747 141.122 14.4747 141.122 13.568C141.122 12.6507 141.308 11.8453 141.682 11.152C142.055 10.4587 142.578 9.92533 143.25 9.552C143.922 9.17867 144.695 8.992 145.57 8.992C146.412 8.992 147.164 9.17333 147.826 9.536C148.498 9.89867 149.015 10.416 149.378 11.088C149.751 11.7493 149.938 12.512 149.938 13.376ZM147.618 12.736C147.607 12.16 147.399 11.7013 146.994 11.36C146.588 11.008 146.092 10.832 145.506 10.832C144.951 10.832 144.482 11.0027 144.098 11.344C143.724 11.6747 143.495 12.1387 143.41 12.736H147.618ZM155.509 18.144C154.655 18.144 153.887 17.9573 153.205 17.584C152.522 17.2 151.983 16.6613 151.589 15.968C151.205 15.2747 151.013 14.4747 151.013 13.568C151.013 12.6613 151.21 11.8613 151.605 11.168C152.01 10.4747 152.559 9.94133 153.253 9.568C153.946 9.184 154.719 8.992 155.573 8.992C156.426 8.992 157.199 9.184 157.893 9.568C158.586 9.94133 159.13 10.4747 159.525 11.168C159.93 11.8613 160.133 12.6613 160.133 13.568C160.133 14.4747 159.925 15.2747 159.509 15.968C159.103 16.6613 158.549 17.2 157.845 17.584C157.151 17.9573 156.373 18.144 155.509 18.144ZM155.509 16.192C155.914 16.192 156.293 16.096 156.645 15.904C157.007 15.7013 157.295 15.4027 157.509 15.008C157.722 14.6133 157.829 14.1333 157.829 13.568C157.829 12.7253 157.605 12.08 157.157 11.632C156.719 11.1733 156.181 10.944 155.541 10.944C154.901 10.944 154.362 11.1733 153.925 11.632C153.498 12.08 153.285 12.7253 153.285 13.568C153.285 14.4107 153.493 15.0613 153.909 15.52C154.335 15.968 154.869 16.192 155.509 16.192Z" fill="#02897A"/>
<path d="M26 19.6H160.677V20.4H26V19.6Z" fill="#02897A"/>
<path fill-rule="evenodd" clip-rule="evenodd" d="M15.8516 10.5303C16.591 10.9653 16.591 12.0347 15.8516 12.4697L2.1954 20.5027C1.44543 20.9439 0.5 20.4031 0.5 19.533V3.46697C0.5 2.59688 1.44543 2.05614 2.1954 2.49729L15.8516 10.5303Z" fill="#02897A"/>
</g>
<defs>
<clipPath id="clip0_1_682">
<rect width="161" height="23" fill="white"/>
</clipPath>
</defs>
</svg>
