<svg width="154" height="100" viewBox="0 0 154 100" fill="none" xmlns="http://www.w3.org/2000/svg">
<g clip-path="url(#clip0_16_92)">
<path d="M64.8949 47.1818H66.9062L66.9233 45.2131C70.6136 44.9318 72.7528 42.9716 72.7614 40.0142C72.7528 37.108 70.5625 35.5653 67.5284 34.8835L67.0256 34.7642L67.0597 30.5028C68.1932 30.767 68.8835 31.4915 68.9858 32.5653H72.5227C72.4801 29.7443 70.375 27.7244 67.0938 27.3665L67.1108 25.3636H65.0994L65.0824 27.3494C61.75 27.6733 59.3977 29.6847 59.4148 32.5909C59.4062 35.1648 61.2216 36.6392 64.1705 37.3466L64.9886 37.5511L64.946 42.0597C63.5568 41.7955 62.6193 40.9432 62.5256 39.5199H58.9545C59.0398 42.9631 61.2983 44.8892 64.9119 45.2045L64.8949 47.1818ZM66.9574 42.0597L66.9915 38.0795C68.3125 38.4972 69.0284 39.0341 69.0369 40.0057C69.0284 41.0369 68.2443 41.804 66.9574 42.0597ZM65.0142 34.2443C63.9489 33.8778 63.1818 33.3239 63.1989 32.3438C63.1989 31.4318 63.8466 30.7244 65.0483 30.4773L65.0142 34.2443Z" fill="white"/>
</g>
<path d="M66.688 64.112C66.688 65.04 66.368 65.8133 65.728 66.432C65.0987 67.04 64.1333 67.344 62.832 67.344H60.688V72H59.232V60.848H62.832C64.0907 60.848 65.0453 61.152 65.696 61.76C66.3573 62.368 66.688 63.152 66.688 64.112ZM62.832 66.144C63.6427 66.144 64.24 65.968 64.624 65.616C65.008 65.264 65.2 64.7627 65.2 64.112C65.2 62.736 64.4107 62.048 62.832 62.048H60.688V66.144H62.832ZM76.5976 67.28C76.5976 67.5573 76.5816 67.8507 76.5496 68.16H69.5416C69.595 69.024 69.8883 69.7013 70.4216 70.192C70.9656 70.672 71.6216 70.912 72.3896 70.912C73.019 70.912 73.5416 70.768 73.9576 70.48C74.3843 70.1813 74.683 69.7867 74.8536 69.296H76.4216C76.187 70.1387 75.7176 70.8267 75.0136 71.36C74.3096 71.8827 73.435 72.144 72.3896 72.144C71.5576 72.144 70.811 71.9573 70.1496 71.584C69.499 71.2107 68.987 70.6827 68.6136 70C68.2403 69.3067 68.0536 68.5067 68.0536 67.6C68.0536 66.6933 68.235 65.8987 68.5976 65.216C68.9603 64.5333 69.467 64.0107 70.1176 63.648C70.779 63.2747 71.5363 63.088 72.3896 63.088C73.2216 63.088 73.9576 63.2693 74.5976 63.632C75.2376 63.9947 75.7283 64.496 76.0696 65.136C76.4216 65.7653 76.5976 66.48 76.5976 67.28ZM75.0936 66.976C75.0936 66.4213 74.971 65.9467 74.7256 65.552C74.4803 65.1467 74.1443 64.8427 73.7176 64.64C73.3016 64.4267 72.8376 64.32 72.3256 64.32C71.5896 64.32 70.9603 64.5547 70.4376 65.024C69.9256 65.4933 69.6323 66.144 69.5576 66.976H75.0936ZM80.0755 64.656C80.3315 64.1547 80.6942 63.7653 81.1635 63.488C81.6435 63.2107 82.2248 63.072 82.9075 63.072V64.576H82.5235C80.8915 64.576 80.0755 65.4613 80.0755 67.232V72H78.6195V63.232H80.0755V64.656ZM94.4939 56.928L90.1099 74.72H88.6699L93.0379 56.928H94.4939ZM111.673 63.072C112.356 63.072 112.964 63.216 113.497 63.504C114.03 63.7813 114.452 64.2027 114.761 64.768C115.07 65.3333 115.225 66.0213 115.225 66.832V72H113.785V67.04C113.785 66.1653 113.566 65.4987 113.129 65.04C112.702 64.5707 112.121 64.336 111.385 64.336C110.628 64.336 110.025 64.5813 109.577 65.072C109.129 65.552 108.905 66.2507 108.905 67.168V72H107.465V67.04C107.465 66.1653 107.246 65.4987 106.809 65.04C106.382 64.5707 105.801 64.336 105.065 64.336C104.308 64.336 103.705 64.5813 103.257 65.072C102.809 65.552 102.585 66.2507 102.585 67.168V72H101.129V63.232H102.585V64.496C102.873 64.0373 103.257 63.6853 103.737 63.44C104.228 63.1947 104.766 63.072 105.353 63.072C106.089 63.072 106.74 63.2373 107.305 63.568C107.87 63.8987 108.292 64.384 108.569 65.024C108.814 64.4053 109.22 63.9253 109.785 63.584C110.35 63.2427 110.98 63.072 111.673 63.072ZM121.537 72.144C120.716 72.144 119.969 71.9573 119.297 71.584C118.636 71.2107 118.113 70.6827 117.729 70C117.356 69.3067 117.169 68.5067 117.169 67.6C117.169 66.704 117.361 65.9147 117.745 65.232C118.14 64.5387 118.673 64.0107 119.345 63.648C120.017 63.2747 120.769 63.088 121.601 63.088C122.433 63.088 123.185 63.2747 123.857 63.648C124.529 64.0107 125.057 64.5333 125.441 65.216C125.836 65.8987 126.033 66.6933 126.033 67.6C126.033 68.5067 125.831 69.3067 125.425 70C125.031 70.6827 124.492 71.2107 123.809 71.584C123.127 71.9573 122.369 72.144 121.537 72.144ZM121.537 70.864C122.06 70.864 122.551 70.7413 123.009 70.496C123.468 70.2507 123.836 69.8827 124.113 69.392C124.401 68.9013 124.545 68.304 124.545 67.6C124.545 66.896 124.407 66.2987 124.129 65.808C123.852 65.3173 123.489 64.9547 123.041 64.72C122.593 64.4747 122.108 64.352 121.585 64.352C121.052 64.352 120.561 64.4747 120.113 64.72C119.676 64.9547 119.324 65.3173 119.057 65.808C118.791 66.2987 118.657 66.896 118.657 67.6C118.657 68.3147 118.785 68.9173 119.041 69.408C119.308 69.8987 119.66 70.2667 120.097 70.512C120.535 70.7467 121.015 70.864 121.537 70.864ZM132.32 63.072C133.386 63.072 134.25 63.3973 134.912 64.048C135.573 64.688 135.904 65.616 135.904 66.832V72H134.464V67.04C134.464 66.1653 134.245 65.4987 133.808 65.04C133.37 64.5707 132.773 64.336 132.016 64.336C131.248 64.336 130.634 64.576 130.176 65.056C129.728 65.536 129.504 66.2347 129.504 67.152V72H128.048V63.232H129.504V64.48C129.792 64.032 130.181 63.6853 130.672 63.44C131.173 63.1947 131.722 63.072 132.32 63.072ZM140.158 64.432V69.6C140.158 70.0267 140.249 70.3307 140.43 70.512C140.611 70.6827 140.926 70.768 141.374 70.768H142.446V72H141.134C140.323 72 139.715 71.8133 139.31 71.44C138.905 71.0667 138.702 70.4533 138.702 69.6V64.432H137.566V63.232H138.702V61.024H140.158V63.232H142.446V64.432H140.158ZM148.662 63.072C149.323 63.072 149.921 63.216 150.454 63.504C150.987 63.7813 151.403 64.2027 151.702 64.768C152.011 65.3333 152.166 66.0213 152.166 66.832V72H150.726V67.04C150.726 66.1653 150.507 65.4987 150.07 65.04C149.633 64.5707 149.035 64.336 148.278 64.336C147.51 64.336 146.897 64.576 146.438 65.056C145.99 65.536 145.766 66.2347 145.766 67.152V72H144.31V60.16H145.766V64.48C146.054 64.032 146.449 63.6853 146.95 63.44C147.462 63.1947 148.033 63.072 148.662 63.072Z" fill="#E0E0E0"/>
<path d="M42.7692 32.844H19.0572V43.332C20.0705 42.2173 21.4892 41.3053 23.3132 40.596C25.1372 39.8867 27.1132 39.532 29.2412 39.532C33.0412 39.532 36.1825 40.3933 38.6652 42.116C41.1985 43.8387 43.0478 46.068 44.2132 48.804C45.3785 51.54 45.9612 54.504 45.9612 57.696C45.9612 63.624 44.2892 68.336 40.9452 71.832C37.6012 75.2773 32.8892 77 26.8092 77C22.7558 77 19.2345 76.316 16.2452 74.948C13.2558 73.5293 10.9505 71.5787 9.32916 69.096C7.70782 66.6133 6.82116 63.7507 6.66916 60.508H19.3612C19.6652 62.0787 20.3998 63.396 21.5652 64.46C22.7305 65.4733 24.3265 65.98 26.3532 65.98C28.7345 65.98 30.5078 65.22 31.6732 63.7C32.8385 62.18 33.4212 60.1533 33.4212 57.62C33.4212 55.1373 32.8132 53.2373 31.5972 51.92C30.3812 50.6027 28.6078 49.944 26.2772 49.944C24.5545 49.944 23.1358 50.3747 22.0212 51.236C20.9065 52.0467 20.1718 53.136 19.8172 54.504H7.27716V21.444H42.7692V32.844Z" fill="white"/>
<defs>
<clipPath id="clip0_16_92">
<rect width="16" height="29" fill="white" transform="translate(58 21)"/>
</clipPath>
</defs>
</svg>
