<svg width="183" height="100" viewBox="0 0 183 100" fill="none" xmlns="http://www.w3.org/2000/svg">
<g clip-path="url(#clip0_16_78)">
<path d="M93.8949 50.1818H95.9062L95.9233 48.2131C99.6136 47.9318 101.753 45.9716 101.761 43.0142C101.753 40.108 99.5625 38.5653 96.5284 37.8835L96.0256 37.7642L96.0597 33.5028C97.1932 33.767 97.8835 34.4915 97.9858 35.5653H101.523C101.48 32.7443 99.375 30.7244 96.0938 30.3665L96.1108 28.3636H94.0994L94.0824 30.3494C90.75 30.6733 88.3977 32.6847 88.4148 35.5909C88.4062 38.1648 90.2216 39.6392 93.1705 40.3466L93.9886 40.5511L93.946 45.0597C92.5568 44.7955 91.6193 43.9432 91.5256 42.5199H87.9545C88.0398 45.9631 90.2983 47.8892 93.9119 48.2045L93.8949 50.1818ZM95.9574 45.0597L95.9915 41.0795C97.3125 41.4972 98.0284 42.0341 98.0369 43.0057C98.0284 44.0369 97.2443 44.804 95.9574 45.0597ZM94.0142 37.2443C92.9489 36.8778 92.1818 36.3239 92.1989 35.3438C92.1989 34.4318 92.8466 33.7244 94.0483 33.4773L94.0142 37.2443Z" fill="#02897A"/>
</g>
<path d="M95.688 64.112C95.688 65.04 95.368 65.8133 94.728 66.432C94.0987 67.04 93.1333 67.344 91.832 67.344H89.688V72H88.232V60.848H91.832C93.0907 60.848 94.0453 61.152 94.696 61.76C95.3573 62.368 95.688 63.152 95.688 64.112ZM91.832 66.144C92.6427 66.144 93.24 65.968 93.624 65.616C94.008 65.264 94.2 64.7627 94.2 64.112C94.2 62.736 93.4107 62.048 91.832 62.048H89.688V66.144H91.832ZM105.598 67.28C105.598 67.5573 105.582 67.8507 105.55 68.16H98.5416C98.595 69.024 98.8883 69.7013 99.4216 70.192C99.9656 70.672 100.622 70.912 101.39 70.912C102.019 70.912 102.542 70.768 102.958 70.48C103.384 70.1813 103.683 69.7867 103.854 69.296H105.422C105.187 70.1387 104.718 70.8267 104.014 71.36C103.31 71.8827 102.435 72.144 101.39 72.144C100.558 72.144 99.811 71.9573 99.1496 71.584C98.499 71.2107 97.987 70.6827 97.6136 70C97.2403 69.3067 97.0536 68.5067 97.0536 67.6C97.0536 66.6933 97.235 65.8987 97.5976 65.216C97.9603 64.5333 98.467 64.0107 99.1176 63.648C99.779 63.2747 100.536 63.088 101.39 63.088C102.222 63.088 102.958 63.2693 103.598 63.632C104.238 63.9947 104.728 64.496 105.07 65.136C105.422 65.7653 105.598 66.48 105.598 67.28ZM104.094 66.976C104.094 66.4213 103.971 65.9467 103.726 65.552C103.48 65.1467 103.144 64.8427 102.718 64.64C102.302 64.4267 101.838 64.32 101.326 64.32C100.59 64.32 99.9603 64.5547 99.4376 65.024C98.9256 65.4933 98.6323 66.144 98.5576 66.976H104.094ZM109.076 64.656C109.332 64.1547 109.694 63.7653 110.164 63.488C110.644 63.2107 111.225 63.072 111.908 63.072V64.576H111.524C109.892 64.576 109.076 65.4613 109.076 67.232V72H107.62V63.232H109.076V64.656ZM123.494 56.928L119.11 74.72H117.67L122.038 56.928H123.494ZM140.673 63.072C141.356 63.072 141.964 63.216 142.497 63.504C143.03 63.7813 143.452 64.2027 143.761 64.768C144.07 65.3333 144.225 66.0213 144.225 66.832V72H142.785V67.04C142.785 66.1653 142.566 65.4987 142.129 65.04C141.702 64.5707 141.121 64.336 140.385 64.336C139.628 64.336 139.025 64.5813 138.577 65.072C138.129 65.552 137.905 66.2507 137.905 67.168V72H136.465V67.04C136.465 66.1653 136.246 65.4987 135.809 65.04C135.382 64.5707 134.801 64.336 134.065 64.336C133.308 64.336 132.705 64.5813 132.257 65.072C131.809 65.552 131.585 66.2507 131.585 67.168V72H130.129V63.232H131.585V64.496C131.873 64.0373 132.257 63.6853 132.737 63.44C133.228 63.1947 133.766 63.072 134.353 63.072C135.089 63.072 135.74 63.2373 136.305 63.568C136.87 63.8987 137.292 64.384 137.569 65.024C137.814 64.4053 138.22 63.9253 138.785 63.584C139.35 63.2427 139.98 63.072 140.673 63.072ZM150.537 72.144C149.716 72.144 148.969 71.9573 148.297 71.584C147.636 71.2107 147.113 70.6827 146.729 70C146.356 69.3067 146.169 68.5067 146.169 67.6C146.169 66.704 146.361 65.9147 146.745 65.232C147.14 64.5387 147.673 64.0107 148.345 63.648C149.017 63.2747 149.769 63.088 150.601 63.088C151.433 63.088 152.185 63.2747 152.857 63.648C153.529 64.0107 154.057 64.5333 154.441 65.216C154.836 65.8987 155.033 66.6933 155.033 67.6C155.033 68.5067 154.831 69.3067 154.425 70C154.031 70.6827 153.492 71.2107 152.809 71.584C152.127 71.9573 151.369 72.144 150.537 72.144ZM150.537 70.864C151.06 70.864 151.551 70.7413 152.009 70.496C152.468 70.2507 152.836 69.8827 153.113 69.392C153.401 68.9013 153.545 68.304 153.545 67.6C153.545 66.896 153.407 66.2987 153.129 65.808C152.852 65.3173 152.489 64.9547 152.041 64.72C151.593 64.4747 151.108 64.352 150.585 64.352C150.052 64.352 149.561 64.4747 149.113 64.72C148.676 64.9547 148.324 65.3173 148.057 65.808C147.791 66.2987 147.657 66.896 147.657 67.6C147.657 68.3147 147.785 68.9173 148.041 69.408C148.308 69.8987 148.66 70.2667 149.097 70.512C149.535 70.7467 150.015 70.864 150.537 70.864ZM161.32 63.072C162.386 63.072 163.25 63.3973 163.912 64.048C164.573 64.688 164.904 65.616 164.904 66.832V72H163.464V67.04C163.464 66.1653 163.245 65.4987 162.808 65.04C162.37 64.5707 161.773 64.336 161.016 64.336C160.248 64.336 159.634 64.576 159.176 65.056C158.728 65.536 158.504 66.2347 158.504 67.152V72H157.048V63.232H158.504V64.48C158.792 64.032 159.181 63.6853 159.672 63.44C160.173 63.1947 160.722 63.072 161.32 63.072ZM169.158 64.432V69.6C169.158 70.0267 169.249 70.3307 169.43 70.512C169.611 70.6827 169.926 70.768 170.374 70.768H171.446V72H170.134C169.323 72 168.715 71.8133 168.31 71.44C167.905 71.0667 167.702 70.4533 167.702 69.6V64.432H166.566V63.232H167.702V61.024H169.158V63.232H171.446V64.432H169.158ZM177.662 63.072C178.323 63.072 178.921 63.216 179.454 63.504C179.987 63.7813 180.403 64.2027 180.702 64.768C181.011 65.3333 181.166 66.0213 181.166 66.832V72H179.726V67.04C179.726 66.1653 179.507 65.4987 179.07 65.04C178.633 64.5707 178.035 64.336 177.278 64.336C176.51 64.336 175.897 64.576 175.438 65.056C174.99 65.536 174.766 66.2347 174.766 67.152V72H173.31V60.16H174.766V64.48C175.054 64.032 175.449 63.6853 175.95 63.44C176.462 63.1947 177.033 63.072 177.662 63.072Z" fill="#AFAFAF"/>
<path d="M2.37583 33.604V21.52H23.4278V77H9.89983V33.604H2.37583ZM32.518 48.5C32.518 39.7853 34.19 32.92 37.534 27.904C40.9287 22.888 46.3754 20.38 53.874 20.38C61.3727 20.38 66.7941 22.888 70.1381 27.904C73.5327 32.92 75.2301 39.7853 75.2301 48.5C75.2301 57.316 73.5327 64.232 70.1381 69.248C66.7941 74.264 61.3727 76.772 53.874 76.772C46.3754 76.772 40.9287 74.264 37.534 69.248C34.19 64.232 32.518 57.316 32.518 48.5ZM62.462 48.5C62.462 43.3827 61.9047 39.456 60.7901 36.72C59.6754 33.9333 57.37 32.54 53.874 32.54C50.378 32.54 48.0727 33.9333 46.9581 36.72C45.8434 39.456 45.2861 43.3827 45.2861 48.5C45.2861 51.9453 45.4887 54.808 45.8941 57.088C46.2994 59.3173 47.1101 61.1413 48.3261 62.56C49.5927 63.928 51.4421 64.612 53.874 64.612C56.306 64.612 58.1301 63.928 59.3461 62.56C60.6127 61.1413 61.4487 59.3173 61.8541 57.088C62.2594 54.808 62.462 51.9453 62.462 48.5Z" fill="#02897A"/>
<defs>
<clipPath id="clip0_16_78">
<rect width="16" height="29" fill="white" transform="translate(87 24)"/>
</clipPath>
</defs>
</svg>
